<svg xmlns="http://www.w3.org/2000/svg" width="29.314" height="29.314" viewBox="0 0 29.314 29.314">
  <g id="Group_203" data-name="Group 203" transform="translate(0.5 0.5)">
    <g id="Group_39" data-name="Group 39" transform="translate(0 0)">
      <path id="Path_38" data-name="Path 38" d="M211.673,379.674a14.157,14.157,0,1,1,14.157-14.157A14.173,14.173,0,0,1,211.673,379.674Z" transform="translate(-197.516 -351.36)" fill="#107dac" stroke="#3f3f3f" stroke-width="1"/>
    </g>
    <g id="Group_40" data-name="Group 40" transform="translate(10.2 5.671)">
      <path id="Path_39" data-name="Path 39" d="M218.917,370.846v8.206a.213.213,0,0,0,.214.213h3.047a.214.214,0,0,0,.214-.213v-8.339H224.6a.214.214,0,0,0,.213-.2l.213-2.512a.214.214,0,0,0-.213-.232h-2.421v-1.783a.756.756,0,0,1,.756-.756h1.7a.213.213,0,0,0,.214-.214v-2.513a.214.214,0,0,0-.214-.214h-2.877a3.057,3.057,0,0,0-3.056,3.057v2.422h-1.523a.213.213,0,0,0-.214.214V370.5a.214.214,0,0,0,.214.214h1.523Z" transform="translate(-217.18 -362.293)" fill="#fff" stroke="#3f3f3f" stroke-width="1" fill-rule="evenodd"/>
    </g>
  </g>
</svg>
