<svg id="Group_207" data-name="Group 207" xmlns="http://www.w3.org/2000/svg" width="12.614" height="16.82" viewBox="0 0 12.614 16.82">
  <path id="Path_49" data-name="Path 49" d="M40.649,547.366H41.5c.105.022.21.048.316.065a4.21,4.21,0,0,1,3.459,4.034c0,.674,0,1.347,0,2.021v.188h.475a1.567,1.567,0,0,1,1.627,1.62q0,3.63,0,7.26a1.567,1.567,0,0,1-1.633,1.63H36.4a1.57,1.57,0,0,1-1.635-1.63v-7.242a1.572,1.572,0,0,1,1.644-1.638h.458c0-.709-.006-1.393,0-2.077a4.08,4.08,0,0,1,.066-.765,4.125,4.125,0,0,1,2.978-3.3C40.156,547.456,40.406,547.42,40.649,547.366Zm-2.364,6.3h5.581c0-.042.006-.075.006-.107,0-.7,0-1.4,0-2.1a2.128,2.128,0,0,0-.051-.438,2.8,2.8,0,0,0-5.536.442c-.008.694,0,1.39,0,2.084C38.279,553.581,38.283,553.619,38.286,553.664Z" transform="translate(-34.769 -547.366)" fill="#96999c"/>
</svg>
