<svg xmlns="http://www.w3.org/2000/svg" width="16.309" height="16.176" viewBox="0 0 16.309 16.176">
  <path id="Path_70" data-name="Path 70" d="M613.063,279.712c1.05,1.013,2.1,2.035,3.164,3.048a1.409,1.409,0,0,1,.491,1.177,1.36,1.36,0,0,1-2.294.887c-.819-.773-1.626-1.56-2.438-2.34-.287-.276-.575-.55-.881-.844a6.88,6.88,0,0,1-5.781.839,6.672,6.672,0,0,1-3.767-2.79,6.882,6.882,0,0,1,9.61-9.483A7,7,0,0,1,613.063,279.712Zm-9.907-3.8a4.14,4.14,0,1,0,4.123-4.15A4.163,4.163,0,0,0,603.156,275.911Z" transform="translate(-600.414 -269.035)" fill="#fff"/>
</svg>
