<svg xmlns="http://www.w3.org/2000/svg" width="175.409" height="60.131" viewBox="0 0 175.409 60.131">
  <g id="Group_188" data-name="Group 188" transform="translate(1545 -1416)">
    <path id="Path_91" data-name="Path 91" d="M-1545,1462.065a55.426,55.426,0,0,1,2.077-6.1c3.4-7.223,10.926-10.275,18.251-7.223a11.01,11.01,0,0,0,9.117-.058c6.98-2.9,13.963-1.033,17.676,4.48-3.935,3.182-6.7,7.043-6.258,12.442.432,5.245,3.392,8.807,7.946,11.329a31.887,31.887,0,0,1-8.825,14.059,6.616,6.616,0,0,1-7.609,1.141,14.529,14.529,0,0,0-13.58.005c-3.015,1.475-5.909.688-8.253-1.766a37.116,37.116,0,0,1-9.645-17.971c-.281-1.279-.6-2.55-.9-3.824Z" transform="translate(0 -16.753)" fill="#c2c2c2"/>
    <path id="Path_92" data-name="Path 92" d="M-1192.2,1483.809h-16.452c-1.286,6.676,4.619,9.7,14.2,7.483,1.42,2.714,1.3,3.11-1.537,3.684-4.4.891-8.8,1.281-12.741-1.567-4.2-3.032-5.662-9.312-3.607-15.229,1.779-5.122,5.675-7.817,10.95-7.574a8.658,8.658,0,0,1,8.406,6.158c.243.648.516,1.285.776,1.926Zm-4.231-3.133c.138-4.277-2.046-6.921-5.593-7.055-3.752-.142-6.654,2.847-6.729,7.055Z" transform="translate(-177.396 -29.191)" fill="#c2c2c2"/>
    <path id="Path_93" data-name="Path 93" d="M-1480.507,1416c.695,7.2-4.859,13.823-11.53,13.748-.954-3.475,1.236-8.579,5.005-11.145a42.977,42.977,0,0,1,5.128-2.6Z" transform="translate(-28.202 0)" fill="#c2c2c2"/>
    <path id="Path_94" data-name="Path 94" d="M-1345.422,1492v12.622h-4.193v-33.5h3.483c.117,1.075.231,2.119.36,3.3.308-.124.537-.147.655-.274,5.845-6.279,14.591-4.575,17.315,3.487a15.541,15.541,0,0,1-.9,12.4C-1331.449,1495.42-1339.475,1497.989-1345.422,1492Zm14.3-8.6c-.207-1.458-.288-2.3-.452-3.135-.842-4.263-3.712-6.7-7.484-6.391-3.559.294-6.259,3.488-6.38,7.607a37.591,37.591,0,0,0,.05,4.4,6.766,6.766,0,0,0,5.489,6.085,6.486,6.486,0,0,0,7.323-3.6A31.617,31.617,0,0,0-1331.12,1483.4Z" transform="translate(-104.477 -29.059)" fill="#c2c2c2"/>
    <path id="Path_95" data-name="Path 95" d="M-1291.071,1504.61v-33.491h3.566l.34,3.338a3.314,3.314,0,0,0,.738-.431c5.971-6.282,15.027-4.337,17.215,4.012a19.914,19.914,0,0,1-.093,9.778,10.116,10.116,0,0,1-17.394,4.256v12.539Zm18.593-21.777-.25-.071c-.058-.693-.087-1.389-.179-2.077-.576-4.287-3.558-7.053-7.353-6.836-3.724.213-6.466,3.4-6.562,7.644-.03,1.313-.047,2.628.005,3.939a6.714,6.714,0,0,0,5.295,6.49,6.6,6.6,0,0,0,7.663-3.775A34.659,34.659,0,0,0-1272.478,1482.833Z" transform="translate(-135.782 -29.046)" fill="#c2c2c2"/>
    <path id="Path_96" data-name="Path 96" d="M-1417.026,1484.481c2.856-8.47,5.646-16.754,8.446-25.034a57.643,57.643,0,0,0,1.936-5.713c.472-2.106,1.6-2.507,3.6-2.549,2.078-.044,2.762.82,3.35,2.594,3.143,9.482,6.409,18.923,9.628,28.38.246.722.459,1.455.69,2.193-3.976.94-4.244.769-5.432-2.771-.81-2.414-1.07-5.687-2.775-6.934s-4.892-.475-7.431-.5c-4.182-.042-4.185-.012-5.5,3.905-.369,1.1-.714,2.211-1.077,3.315C-1412.8,1485.061-1412.8,1485.06-1417.026,1484.481Zm13.734-28.979-4.9,15.2h9.847Z" transform="translate(-68.431 -18.813)" fill="#c2c2c2"/>
    <path id="Path_97" data-name="Path 97" d="M-1228.085,1482.877h-4v-34.932h4Z" transform="translate(-167.325 -17.082)" fill="#c2c2c2"/>
  </g>
</svg>
