<svg xmlns="http://www.w3.org/2000/svg" width="239.13" height="52.099" viewBox="0 0 239.13 52.099">
  <g id="Group_187" data-name="Group 187" transform="translate(0)">
    <path id="Path_77" data-name="Path 77" d="M-643.039,1501.564h-4.08c-2.862-5.121-3.876-11.12-6.091-16.77-3.027,5.282-3.925,11.385-6.371,16.871H-663.9l-9.233-26.489h5.639c1.455,1.942,1.733,4.633,2.541,7.114.966,2.967,1.89,5.948,2.88,8.906.1.306.526.505.8.753,1.849-5.61,3.683-11.179,5.55-16.849h4.609c1.9,5.573,3.822,11.227,6.007,17.649,1.073-3.548,1.906-6.379,2.788-9.2.858-2.742,1.766-5.468,2.713-8.387h5.878Z" transform="translate(837.13 -1457.886)" fill="#c2c2c2"/>
    <path id="Path_78" data-name="Path 78" d="M-838.464,1492.389c-1.038-.668-1.859-.911-2.191-1.452-3.579-5.852-7.416-11.557-10-17.977-1.236-3.073-2.691-6.057-2.333-9.48.143-1.375.535-2.725.844-4.235,2.652-2.908,5.488-5.724,10.1-5.208,1.687,3.153,2.19,6.6,2.936,10.07,1,4.644.406,9.2.6,13.782C-838.312,1482.536-838.464,1487.2-838.464,1492.389Z" transform="translate(871.675 -1453.83)" fill="#c2c2c2"/>
    <path id="Path_79" data-name="Path 79" d="M-827.866,1453.8c4.505.879,8.017,2.434,9.839,6.494a5.048,5.048,0,0,1,.527,1.39,22.762,22.762,0,0,1-2.455,12.688,97.394,97.394,0,0,1-10.081,16.81,16.347,16.347,0,0,1-.981,1.516c.133-3.822-1.383-7.412-1.075-11.276.3-3.742-.377-7.593.181-11.274.644-4.249.826-8.625,2.325-12.724C-829.159,1456.255-828.523,1455.165-827.866,1453.8Z" transform="translate(867.662 -1453.796)" fill="#c2c2c2"/>
    <path id="Path_80" data-name="Path 80" d="M-751.472,1501.608h-4.806a10.44,10.44,0,0,1-.676-2.459c-.086-2.812-.033-5.63-.033-8.612h-11.276v9.835c-1.523,2.2-3.586.946-5.5,1.431v-26.671h5.4v10.295h11.344V1475.1h5.552Z" transform="translate(856.454 -1457.886)" fill="#c2c2c2"/>
    <path id="Path_81" data-name="Path 81" d="M-618.848,1475.086h19.136v4.663h-13.481v4.874h8.272l1.218,1.218v3.4l-1.02,1.02h-8.4v5.68h13.06l1.285,1.285v3.289l-1.21,1.087h-18.855Z" transform="translate(826.708 -1457.884)" fill="#c2c2c2"/>
    <path id="Path_82" data-name="Path 82" d="M-720.455,1494.593c1.981-5.065.987-9.6,1.21-14.065.087-1.73.015-3.469.015-5.354h5.51c.043.844.134,1.858.139,2.873.018,3.765.213,7.545-.057,11.291a16,16,0,0,1-2.788,8.543,8.96,8.96,0,0,1-5.733,3.644,14.124,14.124,0,0,1-9.479-1.251c-2.6-1.4-3.715-3.5-4.626-6.132-1.081-3.118-.636-6.244-.723-9.371-.089-3.194-.019-6.392-.019-9.667h5.656c0,5.1.086,10.171-.056,15.239a7.171,7.171,0,0,0,.966,3.648c1.576,2.871,6.288,3.462,9.042,1.372C-720.867,1494.959-720.366,1494.519-720.455,1494.593Z" transform="translate(849.4 -1457.887)" fill="#c2c2c2"/>
    <path id="Path_83" data-name="Path 83" d="M-685.246,1496.026H-697.6a40.205,40.205,0,0,1-1.416,3.975,6.219,6.219,0,0,1-1.307,1.517h-5.117c4-9.019,7.87-17.741,11.722-26.424h4.787c4.339,8.479,7.582,17.468,12,26.587h-4.887C-684.289,1500.526-684.006,1497.926-685.246,1496.026Zm-5.973-14.186c-1.492,3.364-2.765,6.235-4.071,9.181h7.925C-688.608,1488.064-689.787,1485.254-691.22,1481.84Z" transform="translate(843.334 -1457.886)" fill="#c2c2c2"/>
    <path id="Path_84" data-name="Path 84" d="M-864.86,1464.6c8.229,9.778,14.36,20.472,20.1,32.247-2.07-.968-3.579-1.526-4.939-2.335-4.85-2.881-9.737-5.718-14.424-8.849a16.161,16.161,0,0,1-4.249-4.638c-3.3-5.052-1.575-8.955,1.563-13.25.465-.638,1.123-1.133,1.6-1.761C-865,1465.751-865.019,1465.312-864.86,1464.6Z" transform="translate(874.96 -1455.871)" fill="#c2c2c2"/>
    <path id="Path_85" data-name="Path 85" d="M-827.269,1496.47c5-11.521,11.718-21.607,19.127-31.4,3.524,2.686,4.725,6.638,5.9,10.608-.8,1.887-.629,4.039-2.022,5.818a31.248,31.248,0,0,1-7.989,6.876A90.085,90.085,0,0,1-827.269,1496.47Z" transform="translate(866.727 -1455.961)" fill="#c2c2c2"/>
    <path id="Path_86" data-name="Path 86" d="M-876.02,1486.615c9.5,5.378,18.832,10.121,28.009,16.273h-19.58a17.745,17.745,0,0,1-3.613-1.927c-3.075-2.585-5.305-5.666-4.838-10.036C-875.9,1489.634-876.02,1488.318-876.02,1486.615Z" transform="translate(876.103 -1460.098)" fill="#c2c2c2"/>
    <path id="Path_87" data-name="Path 87" d="M-797.851,1487.007a8.909,8.909,0,0,1,.465,6.427,13.371,13.371,0,0,1-3.25,5.96,14.862,14.862,0,0,1-6.019,3.68h-18.682C-816.307,1496.984-807.123,1492.081-797.851,1487.007Z" transform="translate(866.355 -1460.173)" fill="#c2c2c2"/>
    <path id="Path_88" data-name="Path 88" d="M-581.437,1501.639h-4.4l-1.033-1.033v-25.363h5.43Z" transform="translate(820.567 -1457.914)" fill="#c2c2c2"/>
    <path id="Path_89" data-name="Path 89" d="M-861.979,1516.235a18.174,18.174,0,0,1-6.266-6.145,12.849,12.849,0,0,1,1.832-.305c2.138-.034,4.278.048,6.414-.029,2.841-.1,5.691.361,8.517-.712,1.26-.478,2.852-.081,4.831-.081-3.3,3.413-7.037,5.222-10.6,7.165C-858.489,1516.8-860.4,1516.235-861.979,1516.235Z" transform="translate(874.594 -1464.359)" fill="#c2c2c2"/>
    <path id="Path_90" data-name="Path 90" d="M-803.194,1509.793c-3.221,4.315-3.221,4.315-6.672,6.336a9.271,9.271,0,0,1-7.046-1.484,95.513,95.513,0,0,1-8.043-5.414c2.337.226,4.66-1.116,6.891.505.524.381,1.563.056,2.365.056Z" transform="translate(866.282 -1464.381)" fill="#c2c2c2"/>
  </g>
</svg>
