<svg xmlns="http://www.w3.org/2000/svg" width="157.392" height="139.904" viewBox="0 0 157.392 139.904">
  <g id="Group_72" data-name="Group 72" transform="translate(-533.122 -585)">
    <g id="Group_1" data-name="Group 1" transform="translate(533.122 709.408)">
      <path id="Path_1" data-name="Path 1" d="M546.479,1338.567l-2.244-5.221h-7.213l-2.264,5.221h-1.635l6.647-15.5h1.74l6.668,15.5Zm-5.829-13.734-3.04,7.108h6.018Z" transform="translate(-533.122 -1323.072)" fill="#107dac"/>
      <path id="Path_2" data-name="Path 2" d="M683.025,1338.567v-15.5h1.552v14.09h6.416v1.405Z" transform="translate(-657.758 -1323.072)" fill="#107dac"/>
      <path id="Path_3" data-name="Path 3" d="M794.788,1332.3h-2.977v6.27h-1.552v-15.5h4.277c4.257,0,5.976,1.447,5.976,4.7C800.512,1330.7,799,1332.3,794.788,1332.3Zm-.776-7.821h-2.2v6.416h2.873c3.082,0,4.256-.881,4.256-3.124C798.94,1324.624,796.969,1324.477,794.012,1324.477Z" transform="translate(-746.916 -1323.072)" fill="#107dac"/>
      <path id="Path_4" data-name="Path 4" d="M923.248,1338.567v-7.276h-8.031v7.276h-1.552v-15.5h1.552v6.814h8.031v-6.814H924.8v15.5Z" transform="translate(-849.522 -1323.072)" fill="#107dac"/>
      <path id="Path_5" data-name="Path 5" d="M1053.665,1338.567l-2.244-5.221h-7.213l-2.265,5.221h-1.636l6.647-15.5h1.74l6.668,15.5Zm-5.829-13.734-3.041,7.108h6.018Z" transform="translate(-954.817 -1323.072)" fill="#107dac"/>
      <path id="Path_6" data-name="Path 6" d="M1194.049,1338.567h-3.837v-15.5h3.628c3.774,0,5.3,1.363,5.3,4.026a3.3,3.3,0,0,1-1.719,3.208,3.723,3.723,0,0,1,2.6,3.816C1200.025,1337.183,1198.348,1338.567,1194.049,1338.567Zm-.42-14.091h-1.866v5.263h1.887c2.915,0,3.921-.671,3.921-2.621C1197.572,1325.232,1196.754,1324.477,1193.63,1324.477Zm-.021,6.668h-1.845v6.018h2.118c3.166,0,4.571-.713,4.571-2.957C1198.453,1331.313,1196.356,1331.145,1193.609,1331.145Z" transform="translate(-1079.454 -1323.072)" fill="#107dac"/>
      <path id="Path_7" data-name="Path 7" d="M1311.379,1338.567v-15.5h1.552v15.5Z" transform="translate(-1180.197 -1323.072)" fill="#107dac"/>
      <path id="Path_8" data-name="Path 8" d="M1393.428,1338.567h-4.172v-15.5h3.649c2.81,0,4.445.335,5.913,1.216a7.234,7.234,0,0,1,3.523,6.584C1402.34,1335.338,1399.488,1338.567,1393.428,1338.567Zm4.529-13.084a9.256,9.256,0,0,0-4.99-1.007h-2.16v12.686h2.16c2.747,0,4.341-.4,5.578-1.384a6.254,6.254,0,0,0,2.222-4.969A6.01,6.01,0,0,0,1397.958,1325.483Z" transform="translate(-1244.947 -1323.072)" fill="#107dac"/>
    </g>
    <g id="Group_3" data-name="Group 3" transform="translate(553.131 585)">
      <path id="Path_9" data-name="Path 9" d="M1128.217,859.267a58.467,58.467,0,0,1-14.332,30.214c-.068-.219-.135-.438-.205-.657-.042-.135-.086-.269-.129-.4s-.092-.283-.139-.422c-.066-.2-.131-.39-.2-.586-.052-.153-.106-.3-.161-.458q-.242-.681-.5-1.356c-.082-.217-.167-.434-.253-.651a.108.108,0,0,1-.01-.026c-.069-.171-.139-.344-.211-.518-.016-.042-.032-.082-.05-.123-.052-.128-.106-.257-.162-.386q-.11-.266-.227-.532c-.008-.02-.016-.04-.026-.06-.078-.183-.157-.365-.241-.546q-.5-1.129-1.05-2.229c-.068-.14-.137-.277-.207-.414-.036-.074-.074-.145-.112-.219-.076-.149-.153-.3-.233-.446-.028-.058-.06-.116-.09-.173-.085-.163-.173-.327-.261-.488q-.567-1.055-1.179-2.079c-.114-.193-.229-.386-.346-.578q-.209-.346-.424-.687c-.124-.2-.245-.389-.37-.582-.032-.048-.064-.1-.094-.145-.137-.211-.275-.42-.414-.627-.117-.179-.237-.354-.358-.532-.068-.1-.137-.2-.207-.3-.115-.167-.231-.333-.348-.5-.155-.219-.311-.436-.47-.653s-.3-.408-.45-.609c-.022-.032-.046-.062-.07-.094-.147-.2-.3-.392-.446-.585q-.245-.32-.5-.633c-.153-.2-.309-.386-.464-.578-.022-.026-.042-.054-.064-.08-.164-.2-.325-.395-.49-.59s-.344-.41-.52-.613-.331-.38-.5-.57q-.5-.559-1.006-1.105c-.082-.092-.167-.181-.253-.271-.135-.143-.273-.287-.41-.43-.311-.325-.625-.643-.944-.96-.052-.054-.106-.105-.162-.159-.088-.088-.175-.173-.265-.261s-.209-.2-.315-.3l-.395-.372c-.151-.143-.3-.287-.46-.428-.018-.016-.036-.034-.054-.048-.156-.146-.313-.289-.47-.428s-.335-.3-.5-.446q-.505-.445-1.02-.876c-.131-.112-.263-.221-.4-.328-.062-.052-.121-.1-.183-.151-.154-.128-.307-.251-.462-.375-.349-.281-.7-.558-1.06-.829s-.717-.542-1.08-.807-.729-.528-1.1-.781-.739-.51-1.114-.755l-.012-.008c-.373-.247-.747-.49-1.125-.725s-.767-.474-1.153-.705v0l-3.32-11.317c.008-.018.018-.036.024-.054.1-.207.2-.416.295-.627.105-.227.209-.456.311-.685s.2-.458.3-.689c.207-.482.408-.966.6-1.456.075-.189.149-.378.223-.57l.072-.183c.066-.171.13-.343.193-.514l.054-.147c.05-.129.1-.259.143-.39s.1-.289.153-.432c.072-.205.144-.41.213-.617q.325-.959.619-1.934c.036-.121.072-.241.108-.362s.073-.251.109-.378c.06-.211.119-.424.177-.637.042-.145.08-.291.119-.438q.17-.645.329-1.3A58.7,58.7,0,0,0,1128.217,859.267Z" transform="translate(-1011.528 -791.587)" fill="#71c7ec"/>
      <path id="Path_10" data-name="Path 10" d="M713.131,585.024a58.394,58.394,0,0,1-11.357,26.739l-.048.008c-7.252,1.195-14.731,4.609-18.6,12.926a39.779,39.779,0,0,0-1.554,3.868,58.412,58.412,0,0,1-25.8,6.29A58.7,58.7,0,0,1,713.131,585.024Z" transform="translate(-655.109 -585.02)" fill="#005073"/>
      <path id="Path_11" data-name="Path 11" d="M1101.64,647.382a58.989,58.989,0,0,1-.685,8.992,58.7,58.7,0,0,1-39.719-25.8c-.1-.151-.2-.3-.3-.458l16.84-14.944h-12.926l-7.718,8.042q-.3-.654-.594-1.314c-.058-.131-.115-.265-.171-.4-.028-.064-.054-.127-.082-.191-.1-.237-.2-.472-.295-.711-.034-.082-.068-.165-.1-.249-.076-.183-.147-.368-.219-.554q-.066-.161-.125-.323c-.02-.05-.04-.1-.058-.149-.056-.145-.109-.289-.163-.434-.092-.249-.183-.5-.271-.745s-.175-.5-.261-.749c-.076-.217-.15-.436-.219-.655-.028-.082-.054-.163-.08-.243-.064-.2-.125-.388-.185-.583-.072-.231-.143-.462-.211-.7-.026-.078-.048-.157-.072-.237-.056-.193-.111-.388-.167-.583-.072-.253-.141-.508-.209-.763-.018-.064-.034-.127-.052-.191l-.132-.508c-.012-.048-.024-.1-.038-.147s-.018-.07-.026-.106a.2.2,0,0,0-.008-.03l-.018-.072c-.032-.139-.066-.279-.1-.416s-.074-.3-.108-.456-.072-.3-.1-.458c-.046-.2-.09-.4-.131-.6q-.117-.544-.221-1.1c-.038-.193-.074-.39-.11-.586-.012-.062-.024-.123-.034-.185s-.022-.124-.032-.185c-.022-.124-.042-.247-.064-.373,0-.022-.008-.044-.012-.068-.042-.245-.08-.492-.118-.739q-.11-.7-.2-1.412c-.02-.141-.038-.283-.054-.426q-.045-.361-.086-.729c-.018-.171-.036-.343-.054-.516-.014-.135-.026-.271-.038-.406q-.027-.272-.048-.544c-.014-.155-.026-.311-.038-.468,0-.042-.006-.084-.01-.127-.01-.144-.02-.289-.03-.432-.014-.209-.026-.418-.038-.629-.014-.255-.028-.51-.038-.767-.006-.139-.012-.281-.016-.424-.01-.251-.016-.5-.022-.755v-.024c0-.165-.008-.333-.01-.5,0-.275-.006-.552-.006-.829a58.972,58.972,0,0,1,.685-8.993q2.139.344,4.224.84A58.707,58.707,0,0,1,1101.64,647.382Z" transform="translate(-984.265 -588.694)" fill="#1ebbd7"/>
      <path id="Path_12" data-name="Path 12" d="M920.9,991.154q-.517,1.335-1.143,2.637c-6.553,13.615-12.906,14.749-18.425,12.141a4.2,4.2,0,0,1-1.046-.729A58.8,58.8,0,0,0,920.9,991.154Z" transform="translate(-858.405 -922.693)" fill="#1ebbd7"/>
      <path id="Path_13" data-name="Path 13" d="M785.279,1001.607a58.7,58.7,0,0,1-96.054-12.725,59.134,59.134,0,0,0,25.291.426,13.806,13.806,0,0,0,8.194,4.967c14.458,2.352,24.209-8.182,27.348-18.943l4.248,17.541h14.059v-3.38h-2.99l-6.212-21.168q.579.346,1.153.705c.379.237.753.48,1.126.725l.012.008c.374.247.745.5,1.113.755s.737.518,1.1.781.723.534,1.079.807.711.548,1.06.828c.155.124.309.249.462.375.062.05.122.1.183.151.133.108.265.217.4.329q.514.43,1.02.876c.169.148.337.3.5.446s.315.283.47.428c.018.014.036.032.054.048.155.141.309.285.46.428l.394.372c.106.1.211.205.315.3s.177.173.265.261c.056.054.109.105.161.159.319.317.633.635.944.96.137.143.275.287.41.43.086.09.171.179.253.271q.511.547,1.006,1.105c.167.189.333.378.5.569s.349.406.52.613.327.39.49.59c.022.026.042.054.064.08.155.191.311.382.464.578s.333.42.5.633c.15.193.3.388.446.586.024.032.048.062.07.094.151.2.3.4.45.61s.315.434.47.653c.117.165.233.331.348.5.07.1.14.2.207.3.122.177.241.353.359.532q.209.311.414.627c.03.048.062.1.094.145.126.193.247.386.37.582q.215.341.424.687c.118.191.233.384.347.578q.612,1.025,1.179,2.079c.088.161.175.325.261.488.03.058.062.115.09.173.08.147.157.3.233.446.038.074.076.145.112.219.07.137.139.275.207.414q.55,1.1,1.05,2.229c.084.181.163.363.241.546.01.02.018.04.026.06q.117.266.227.532c.056.129.109.259.161.386.018.042.034.082.05.124.072.173.141.346.211.518a.105.105,0,0,0,.01.026c.086.217.171.434.253.651q.26.675.5,1.356c.055.153.109.3.161.458.068.2.133.39.2.586.048.139.094.281.14.422s.087.267.129.4C785.143,1001.169,785.211,1001.388,785.279,1001.607Z" transform="translate(-682.921 -903.713)" fill="#1ebbd7"/>
      <path id="Path_14" data-name="Path 14" d="M675.7,860.551a58.807,58.807,0,0,0-21.323,15.075,59.073,59.073,0,0,1-1.882-26,58.412,58.412,0,0,0,25.8-6.29A50.945,50.945,0,0,0,675.7,860.551Z" transform="translate(-651.827 -799.79)" fill="#71c7ec"/>
      <path id="Path_15" data-name="Path 15" d="M879.247,640.294l1.659,1.659q-1.407-.2-2.838-.337l-4.169-4.169a1.092,1.092,0,0,0-1.544,0l-4.059,4.059a58.65,58.65,0,0,0-6.616.851c-.034-11.325,3.035-22.538,11.663-24.854,8.19-2.2,12.846,3.408,15.489,10.068.038.1.076.193.111.289l5.232-5.451a20.247,20.247,0,0,0-21.2-10.666A58.393,58.393,0,0,0,884.329,585c.221,0,.444,0,.665,0a58.885,58.885,0,0,1,9.393.749,58.959,58.959,0,0,0-.685,8.993c0,.277,0,.554.006.828,0,.167.006.335.01.5v.024c.006.253.012.5.022.755,0,.143.01.285.016.424.01.257.024.512.038.767.012.211.024.42.038.629.01.143.02.289.03.432,0,.044.006.086.01.127.012.157.024.313.038.468q.021.272.048.544c.012.135.024.271.038.406.018.173.036.344.054.516.028.245.056.488.086.729.016.143.034.285.054.426q.09.711.2,1.412c.038.247.076.494.117.739,0,.024.008.046.012.068.022.125.042.249.064.372.01.062.022.123.032.185s.022.123.034.185c.036.2.072.392.109.586q.1.553.221,1.1c.042.2.086.4.131.6.032.153.068.307.1.458s.072.3.108.456.068.277.1.416l.018.072a.17.17,0,0,1,.008.03c.008.036.018.07.026.106s.026.1.038.147l.131.508c.018.064.034.127.052.191.068.255.138.51.209.763.056.2.111.39.167.583.024.08.046.159.072.237.068.233.139.464.211.7.06.2.121.388.185.584.026.08.052.161.08.243.07.219.144.438.219.655.086.249.171.5.261.749s.179.5.271.745c.054.146.108.289.163.434.018.05.038.1.058.149q.06.162.126.323c.072.185.143.37.219.554l.1.249c.1.239.2.474.295.711.028.064.054.127.082.191.056.132.114.265.171.4q.29.66.594,1.314Z" transform="translate(-826.307 -585)" fill="#107dac"/>
      <path id="Path_16" data-name="Path 16" d="M1016.928,831.209q-.158.651-.329,1.3c-.04.147-.078.293-.12.438-.058.213-.118.426-.177.638-.036.127-.074.253-.109.378s-.072.241-.108.363q-.293.974-.619,1.934c-.07.207-.141.412-.213.617-.05.143-.1.289-.153.432s-.094.261-.143.39c-.018.05-.036.1-.054.147-.064.171-.127.343-.193.514-.024.06-.048.121-.072.183-.074.191-.147.38-.223.569-.2.49-.4.974-.6,1.456-.1.231-.2.462-.3.689s-.205.458-.311.685c-.1.211-.193.42-.295.627-.006.018-.016.036-.024.054l-1.488-5.069-6.5,5.77a35.518,35.518,0,0,1-.193,5.346,57.88,57.88,0,0,0-6.324-1.713l6.379-5.661,6.143-5.451,5.738-5.093C1016.729,830.9,1016.828,831.058,1016.928,831.209Z" transform="translate(-939.956 -789.328)" fill="#107dac"/>
      <path id="Path_17" data-name="Path 17" d="M695.987,970.308a59.139,59.139,0,0,1-25.291-.426,57.805,57.805,0,0,1-3.756-9.333,58.807,58.807,0,0,1,21.323-15.075C688.42,955.34,691.213,964.751,695.987,970.308Z" transform="translate(-664.393 -884.712)" fill="#189ad3"/>
      <path id="Path_18" data-name="Path 18" d="M891.045,923.068a36.241,36.241,0,0,1-2.242,9.12,58.8,58.8,0,0,1-20.614,14.05c-3.581-3.29-6.475-14.273-6.507-25.153a58.673,58.673,0,0,1,6.616-.851l-1.759,1.759a1.092,1.092,0,0,0,0,1.544l11.339,11.339a1.092,1.092,0,0,0,1.544,0l5.818-5.818a1.092,1.092,0,0,0,0-1.544l-7.17-7.17q1.431.135,2.838.337l2.151,2.151,1.663-1.476A57.86,57.86,0,0,1,891.045,923.068Z" transform="translate(-826.308 -863.727)" fill="#189ad3"/>
      <g id="Group_2" data-name="Group 2" transform="translate(75.816 64.36)">
        <path id="Path_19" data-name="Path 19" d="M1102.044,967.076v0c-.142-.086-.283-.169-.427-.253C1101.761,966.907,1101.9,966.992,1102.044,967.076Z" transform="translate(-1101.618 -966.825)" fill="#fff"/>
      </g>
    </g>
  </g>
</svg>
