<svg id="Group_186" data-name="Group 186" xmlns="http://www.w3.org/2000/svg" width="169.9" height="35.809" viewBox="0 0 169.9 35.809">
  <path id="Path_72" data-name="Path 72" d="M-193.965,1301.09V1293.4c-2.515,6.608-7.127,8.068-12.777,7.9-5.274-.154-10.556-.033-15.833-.033-6.882,0-9.5-1.7-11.854-7.24-2.159,2.058-4.386,4.371-6.841,6.408a5.522,5.522,0,0,1-3.287.8c-14.293.05-28.586.033-43.111.033v-23.944l8.883.544v14.137h30.744c.672,0,1.473.231,1.987-.055a17.351,17.351,0,0,0,2.523-2.038c-.785-.629-1.521-1.729-2.361-1.815q-10.443-1.061-20.919-1.786c-6.108-.431-9.522-2.844-10.686-8.2,4.165.275,8.213.5,12.253.819,5.829.468,11.646,1.288,17.481,1.44,5.585.146,10.147,1.55,12.939,6.971v-11.491l9.354.7c0,3.729-.022,7.339.006,10.948.029,3.694.9,4.543,4.6,4.552,4.414.011,8.829.02,13.243,0,3.1-.016,4.119-.974,4.2-4.115s.017-6.3.017-9.492h9.1v13.12a10.4,10.4,0,0,0,1.711.351c10.172.019,20.345.077,30.515-.067,1.088-.016,2.954-1.1,3.083-1.913.334-2.089-1.608-1.813-3.019-1.929-6.879-.565-13.756-1.168-20.636-1.729-5.861-.478-9.194-2.8-10.481-7.639,5.62.291,11.138.55,16.652.872,5.266.308,10.524.745,15.791,1.012,6.163.312,10.528,4.545,10.467,10.3-.065,6.066-4.412,10.409-10.613,10.437-10.652.048-21.3.009-31.956,0A10.519,10.519,0,0,1-193.965,1301.09Z" transform="translate(320.119 -1265.511)" fill="#c2c2c2"/>
  <path id="Path_73" data-name="Path 73" d="M-314.641,1267.153c1.811-2.8,3.3-5.33,5.046-7.662a3.954,3.954,0,0,1,2.746-1.315c5.538-.121,11.08-.059,16.843-.059v7.023l.484.171c.3-.475.628-.93.88-1.427,1.8-3.552,4.776-5.716,8.64-5.792,10.529-.207,21.065-.071,31.787-.071v9.133Z" transform="translate(331.559 -1257.929)" fill="#c2c2c2"/>
  <path id="Path_74" data-name="Path 74" d="M-88.265,1257.955v9.153h-53.2v-8.978h9.241v7.143c2.9-5.982,7.753-7.492,13.794-7.372C-108.483,1258.1-98.525,1257.955-88.265,1257.955Z" transform="translate(258.11 -1257.895)" fill="#c2c2c2"/>
  <path id="Path_75" data-name="Path 75" d="M-317.294,1276.884c-5.159,8.008-10.06,15.65-15.027,23.25a2.634,2.634,0,0,1-1.8,1.085c-3.122.11-6.251.051-9.9.051,3.755-5.9,7.228-11.371,10.7-16.836a67.973,67.973,0,0,0,3.812-6.081c1.08-2.181,2.624-2.757,4.855-2.4C-322.391,1276.305-320.114,1276.532-317.294,1276.884Z" transform="translate(344.019 -1265.511)" fill="#c2c2c2"/>
  <path id="Path_76" data-name="Path 76" d="M-186.715,1267.374h-8.993v-9.008h8.993Z" transform="translate(281.115 -1258.095)" fill="#c2c2c2"/>
</svg>
