<svg width="10" height="9" xmlns="http://www.w3.org/2000/svg" xmlns:xlink="http://www.w3.org/1999/xlink" xmlns:svgjs="http://svgjs.com/svgjs" viewBox="676 16 10 9"><svg width="10" height="6" xmlns="http://www.w3.org/2000/svg" xmlns:xlink="http://www.w3.org/1999/xlink" xmlns:svgjs="http://svgjs.com/svgjs" viewBox="0 0.251 10 5.498" fill="#96999c" x="676" y="19"><svg xmlns="http://www.w3.org/2000/svg" xmlns:xlink="http://www.w3.org/1999/xlink" width="10" height="6" viewBox="1 0.277 8.751 4.811"><path paint-order="stroke fill markers" fill-rule="evenodd" d="M5.38.28h3.986c.179 0 .349.115.377.28a.84.84 0 0 1-.013.294c-.079.418-.166.834-.248 1.251-.11.567-.221 1.134-.329 1.701-.062.328-.118.656-.176.984-.03.164-.202.298-.387.298H2.169c-.208 0-.354-.14-.39-.346-.046-.279-.105-.555-.16-.833l-.206-1.056-.245-1.262c-.055-.28-.111-.56-.16-.841C.952.441 1.2.276 1.421.277 2.742.283 4.06.28 5.38.28zM2.69 2.664v1.114c0 .128.087.227.197.226.11-.001.194-.1.194-.23V1.575c0-.129-.084-.229-.192-.23-.113-.003-.199.098-.199.234v1.085zm1.671.02V1.57c0-.127-.088-.228-.195-.226-.108.002-.195.099-.195.22v2.219c0 .123.085.22.192.22.11.001.198-.097.198-.224V2.684zm.812-.02v1.113c0 .13.086.227.197.226.11 0 .194-.098.194-.228v-2.2c0-.129-.083-.229-.192-.231-.113-.002-.199.098-.199.234v1.085zm1.262.01v1.104c0 .129.086.227.197.226.105 0 .192-.1.193-.22v-2.22c0-.127-.089-.223-.202-.22-.105.002-.189.101-.189.225v1.104zm1.65.015V1.556c0-.113-.09-.21-.19-.212-.108-.002-.2.097-.2.215v2.228c0 .121.09.217.198.216.106 0 .192-.098.192-.22V2.69z"/></svg></svg><svg width="8" height="4" xmlns="http://www.w3.org/2000/svg" xmlns:xlink="http://www.w3.org/1999/xlink" xmlns:svgjs="http://svgjs.com/svgjs" viewBox="0 0.228 8 3.544" fill="#96999c" x="677" y="16"><svg xmlns="http://www.w3.org/2000/svg" width="8" height="4" viewBox="0.992 0 6.775 3.001"><path paint-order="stroke fill markers" fill-rule="evenodd" d="M3.155.755c-.275 0-.544-.01-.812.002a.747.747 0 0 0-.691.651c-.039.27-.086.54-.13.81l-.102.649L1.395 3H.992c.015-.112.028-.22.045-.328.037-.233.073-.465.114-.697.055-.302.084-.614.18-.903.124-.37.398-.624.795-.679.307-.042.62-.033.932-.042.068-.002.1-.015.113-.091.025-.14.189-.259.35-.26C4.1 0 4.678 0 5.257.003c.178.001.311.11.352.28.014.054.04.07.094.07.226-.003.452.003.678-.003.53-.015 1.048.437 1.115.941.056.421.14.84.208 1.259.024.147.041.295.062.45h-.403c-.034-.19-.068-.386-.101-.582-.052-.314-.107-.626-.152-.94-.02-.148-.047-.29-.14-.41-.144-.189-.333-.305-.575-.31C6.137.75 5.88.754 5.622.754c-.067.196-.212.293-.414.292-.543-.003-1.086-.001-1.629-.001-.223 0-.344-.082-.424-.291z"/></svg></svg></svg>