<svg id="Group_202" data-name="Group 202" xmlns="http://www.w3.org/2000/svg" width="28.347" height="28.313" viewBox="0 0 28.347 28.313">
  <path id="Path_35" data-name="Path 35" d="M290.789,364.87v1.651a1.146,1.146,0,0,0-.028.149,13.093,13.093,0,0,1-.313,2.165,14.2,14.2,0,0,1-7.529,9.545,13.809,13.809,0,0,1-4.882,1.4c-.191.018-.382.045-.573.067h-1.684c-.043-.009-.084-.023-.127-.028-.365-.04-.731-.074-1.1-.12a12.555,12.555,0,0,1-2.255-.515,14.159,14.159,0,0,1-9.846-12.877,13.63,13.63,0,0,1,.1-2.331,14.188,14.188,0,0,1,13.417-12.424,13.45,13.45,0,0,1,2.575.116,14.178,14.178,0,0,1,9.431,5.56,13.765,13.765,0,0,1,2.749,7.1C290.742,364.51,290.768,364.69,290.789,364.87Zm-10.055-6.515a9.307,9.307,0,0,0-1.145-1.03,8.938,8.938,0,0,0-5.129-1.851,8.756,8.756,0,0,0-2.394.216,9.079,9.079,0,0,0-5.148,3.3,9.509,9.509,0,0,0-2.052,6,9.09,9.09,0,0,0,.208,1.944,9.388,9.388,0,0,0,3.123,5.3,8.926,8.926,0,0,0,5.32,2.176,8.593,8.593,0,0,0,2.545-.2,9.1,9.1,0,0,0,4.549-2.555,9.469,9.469,0,0,0,2.347-4.062,9.741,9.741,0,0,0,.366-2.51c.007-.364-.021-.729-.033-1.1h-9.172c-.04.279-.031,3,.013,3.154h3.773c.312,0,.624,0,.936,0s.628-.006.962.006c-.035.092-.055.152-.079.212a6.185,6.185,0,0,1-1.594,2.269,5.973,5.973,0,0,1-3.392,1.531,5.739,5.739,0,0,1-1.914-.107,5.907,5.907,0,0,1-3.495-2.214,6.175,6.175,0,0,1-1.23-5.031,6.041,6.041,0,0,1,2.172-3.728,5.862,5.862,0,0,1,4.848-1.3,5.785,5.785,0,0,1,2.731,1.236c.107.087.214.175.327.268Zm3.734,1.3v1.282h-1.147v1.02h1.164l.022,1.16h.968v-1.17h1.139v-1.02h-1.154v-1.272Z" transform="translate(-262.442 -351.531)" fill="#107dac"/>
  <path id="Path_36" data-name="Path 36" d="M282.983,362.007l-2.557,1.93c-.113-.093-.219-.181-.327-.268a5.786,5.786,0,0,0-2.731-1.236,5.862,5.862,0,0,0-4.848,1.3,6.041,6.041,0,0,0-2.172,3.728,6.175,6.175,0,0,0,1.23,5.031,5.906,5.906,0,0,0,3.495,2.214,5.739,5.739,0,0,0,1.914.107,5.974,5.974,0,0,0,3.392-1.531,6.186,6.186,0,0,0,1.594-2.269c.024-.059.045-.12.079-.212-.335-.012-.648,0-.962-.006s-.624,0-.936,0h-3.773c-.044-.154-.053-2.875-.013-3.154h9.172c.012.371.04.736.033,1.1a9.741,9.741,0,0,1-.366,2.51,9.469,9.469,0,0,1-2.347,4.062,9.1,9.1,0,0,1-4.549,2.555,8.593,8.593,0,0,1-2.545.2,8.926,8.926,0,0,1-5.32-2.176,9.388,9.388,0,0,1-3.123-5.3,9.09,9.09,0,0,1-.208-1.944,9.509,9.509,0,0,1,2.052-6,9.079,9.079,0,0,1,5.148-3.3,8.758,8.758,0,0,1,2.394-.216,8.939,8.939,0,0,1,5.129,1.851A9.3,9.3,0,0,1,282.983,362.007Z" transform="translate(-264.692 -355.183)" fill="#fff"/>
  <path id="Path_37" data-name="Path 37" d="M303.84,367.2h.993v1.272h1.154v1.02h-1.139v1.17h-.968l-.022-1.16h-1.164v-1.02h1.147Z" transform="translate(-281.814 -359.072)" fill="#fff"/>
</svg>
