<svg id="Group_206" data-name="Group 206" xmlns="http://www.w3.org/2000/svg" width="23.882" height="16.793" viewBox="0 0 23.882 16.793">
  <path id="Path_45" data-name="Path 45" d="M106.725,562.5l-.2.581-7.086-7.229,7.07-7.213.219.613Z" transform="translate(-82.844 -547.484)" fill="#96999c"/>
  <path id="Path_46" data-name="Path 46" d="M82.707,547.545a5.645,5.645,0,0,1,.9-.152q9.873-.012,19.746,0a5.663,5.663,0,0,1,.908.155c-.106.114-.156.172-.21.225q-4.486,4.466-8.972,8.93a2.065,2.065,0,0,1-2.249.6,2.4,2.4,0,0,1-.875-.55q-4.568-4.514-9.113-9.054C82.813,547.67,82.79,547.641,82.707,547.545Z" transform="translate(-81.543 -547.386)" fill="#96999c"/>
  <path id="Path_47" data-name="Path 47" d="M104.128,564.83a5.074,5.074,0,0,1-.818.128c-1.306.016-2.612.006-3.918.006q-7.826,0-15.65-.005a6.918,6.918,0,0,1-.947-.128l7.16-7.3c.109.106.178.175.25.242a12.35,12.35,0,0,0,1.417,1.274,3.434,3.434,0,0,0,4.389-.513c.322-.314.635-.637.979-.982Z" transform="translate(-81.55 -548.175)" fill="#96999c"/>
  <path id="Path_48" data-name="Path 48" d="M81.6,563.059a4.566,4.566,0,0,1-.148-.812q-.014-6.365,0-12.728a4.575,4.575,0,0,1,.148-.813l.077-.018,7.072,7.216-7.039,7.181Z" transform="translate(-81.445 -547.487)" fill="#96999c"/>
</svg>
