<svg width="9" height="9" xmlns="http://www.w3.org/2000/svg" xmlns:xlink="http://www.w3.org/1999/xlink" xmlns:svgjs="http://svgjs.com/svgjs" viewBox="0 0.037 9 8.926" fill="#107dac"><svg xmlns="http://www.w3.org/2000/svg" width="9" height="9" viewBox="0 0 8.155 8.088"><path paint-order="stroke fill markers" fill-rule="evenodd" d="M6.324 5.339c.525.506 1.052 1.017 1.583 1.524.17.162.264.352.245.588a.647.647 0 0 1-.414.577.644.644 0 0 1-.733-.133c-.41-.387-.813-.78-1.22-1.17l-.44-.422c-.906.56-1.868.719-2.89.42A3.337 3.337 0 0 1 .57 5.326C-.344 3.955-.142 2.135 1.05.962 2.194-.166 4.039-.315 5.376.586a3.5 3.5 0 0 1 .948 4.753zm-4.953-1.9a2.082 2.082 0 0 0 2.074 2.065c1.13-.004 2.074-.954 2.066-2.078a2.084 2.084 0 0 0-2.079-2.063 2.076 2.076 0 0 0-2.061 2.075z"/></svg></svg>