<svg xmlns="http://www.w3.org/2000/svg" width="15.425" height="18.186" viewBox="0 0 15.425 18.186">
  <g id="Group_209" data-name="Group 209" transform="translate(-58.719 -547.34)">
    <path id="Path_43" data-name="Path 43" d="M59.221,565.526a.8.8,0,0,1-.5-.858c.026-.94-.007-1.883.044-2.822a5.547,5.547,0,0,1,1.062-2.926,6.014,6.014,0,0,1,3.031-2.265,6.277,6.277,0,0,1,2.021-.318q1.554-.01,3.107,0a6.017,6.017,0,0,1,4.75,2.19,5.48,5.48,0,0,1,1.322,2.987c.077.715.061,1.44.079,2.161.009.331-.014.663.006.994a.78.78,0,0,1-.5.858Z" fill="#96999c"/>
    <path id="Path_44" data-name="Path 44" d="M66.431,547.34a4.258,4.258,0,1,1-4.259,4.251A4.261,4.261,0,0,1,66.431,547.34Z" fill="#96999c"/>
  </g>
</svg>
